# xmcd CD database file
#
# Track frame offsets:
#	150
#	68294
#	106037
#	178987
#
# Disc length: 2957 seconds
#
# Revision: 0
# Processed by: cddbd v1.5.1PL0 Copyright (c) Steve Scherf et al.
# Submitted via: CDex 1.51
#
DISCID=280b8b04
DTITLE=Esbjörn Svensson Trio - JazzBaltica 2003                          [2|2]
DYEAR=2003
DGENRE=Jazz
TTITLE0=Esbjörn Svensson Trio - Behind The Yashmack
TTITLE1=Esbjörn Svensson Trio - Believe, Beleft, Below
TTITLE2=Esbjörn Svensson Trio - Dodge The Dodo
TTITLE3=Esbjörn Svensson Trio - Round Midnight
EXTD=YEAR: 2003
EXTT0=
EXTT1=
EXTT2=
EXTT3=
PLAYORDER=
